<svg width="90" height="72" viewBox="0 0 90 72" fill="none" xmlns="http://www.w3.org/2000/svg">
<style>
path {
    fill:#000;
}

@media (prefers-color-scheme: dark) {
    path {
        fill:#fff;
    }
}

</style>

<path d="M9.00267 70.912C8.66133 70.912 8.32 70.7413 7.97867 70.4L7.08267 70.144L6.82667 70.272L7.08267 69.888C7.08267 69.632 6.912 69.504 6.57067 69.504C6.22933 69.504 5.97333 69.504 5.80267 69.504C5.888 68.9067 5.54667 68.608 4.77867 68.608C4.096 68.608 3.79733 68.4373 3.88267 68.096L3.37067 67.968C3.28533 67.5413 3.02933 67.1573 2.60267 66.816C2.77333 66.6453 2.816 66.432 2.73067 66.176C2.64533 66.0053 2.60267 65.8773 2.60267 65.792C2.432 65.792 2.26133 65.7067 2.09067 65.536L1.96267 65.152C1.792 65.152 1.536 65.0667 1.19467 64.896C1.19467 64.7253 1.152 64.5547 1.06667 64.384C1.06667 64.2133 1.06667 64.0853 1.06667 64H0.938667C0.853333 63.6587 0.725333 63.488 0.554667 63.488C0.469333 63.488 0.341333 63.4453 0.170667 63.36C0 62.6773 -0.0426667 62.1653 0.0426667 61.824C0.128 61.4827 0.128 61.0133 0.0426667 60.416L0.170667 60.16C0.597333 59.392 0.810667 59.008 0.810667 59.008C1.06667 59.008 1.28 59.264 1.45067 59.776C1.62133 60.288 1.792 60.672 1.96267 60.928C2.048 61.0133 2.176 61.0987 2.34667 61.184C2.51733 61.2693 2.56 61.3547 2.47467 61.44L2.34667 61.952L2.60267 61.824C2.60267 62.1653 2.688 62.4213 2.85867 62.592C2.944 62.9333 3.11467 63.488 3.37067 64.256C3.62667 64.9387 4.05333 65.2373 4.65067 65.152C4.65067 65.408 4.77867 65.664 5.03467 65.92C5.376 66.176 5.67467 66.2613 5.93067 66.176C6.016 66.3467 6.22933 66.4747 6.57067 66.56C6.912 66.6453 7.168 66.7307 7.33867 66.816C7.76533 66.7307 8.192 66.688 8.61867 66.688C9.13067 66.7733 9.6 66.7733 10.0267 66.688L12.8427 66.176C12.928 66.0907 13.3547 65.8773 14.1227 65.536C14.8907 65.1947 15.4453 64.8533 15.7867 64.512H15.9147C16.3413 64.512 16.768 64.4267 17.1947 64.256C17.7067 64 18.1333 63.7867 18.4747 63.616C18.7307 63.5307 18.944 63.4027 19.1147 63.232C19.2853 62.976 19.4987 62.8053 19.7547 62.72L20.9067 62.08C21.1627 61.9093 21.4187 61.8667 21.6747 61.952C22.016 61.952 22.3147 61.7813 22.5707 61.44C22.8267 61.2693 23.04 61.056 23.2107 60.8C23.4667 60.544 23.68 60.3307 23.8507 60.16H24.2347C24.4907 59.7333 24.6613 59.392 24.7467 59.136L27.1787 58.24C27.3493 58.0693 27.4773 57.8987 27.5627 57.728C27.7333 57.472 27.8613 57.2587 27.9467 57.088C28.1173 56.9173 28.3307 56.7893 28.5867 56.704C28.8427 56.5333 28.9707 56.2773 28.9707 55.936C29.3973 55.7653 29.7813 55.552 30.1227 55.296C30.5493 55.04 30.848 54.7413 31.0187 54.4C31.1893 54.3147 31.7013 53.9307 32.5547 53.248C33.408 52.48 34.3893 51.6267 35.4987 50.688C36.608 49.7493 37.5893 48.9387 38.4427 48.256C39.296 47.488 39.7653 47.0613 39.8507 46.976L40.3627 46.464L36.3947 44.928C34.176 44.0747 31.872 43.392 29.4827 42.88C27.1787 42.2827 24.6613 41.856 21.9307 41.6C21.3333 41.5147 20.9067 41.344 20.6507 41.088C20.48 40.7467 20.3947 40.1493 20.3947 39.296C20.3947 38.1867 20.8213 37.4613 21.6747 37.12C22.528 36.6933 23.5093 36.48 24.6187 36.48C25.8133 36.48 26.752 36.5653 27.4347 36.736C28.2027 36.9067 29.2693 37.0347 30.6347 37.12C30.8053 37.12 31.4453 37.248 32.5547 37.504C33.664 37.6747 34.8587 37.8453 36.1387 38.016C36.3093 38.016 36.992 38.0587 38.1867 38.144C39.4667 38.2293 40.576 38.272 41.5147 38.272C42.624 38.1867 43.776 38.144 44.9707 38.144C46.1653 38.144 47.36 38.144 48.5547 38.144L50.6027 35.84C51.3707 34.9867 52.096 34.1333 52.7787 33.28C53.5467 32.4267 54.3573 31.616 55.2107 30.848C55.4667 30.592 55.7227 30.3787 55.9787 30.208C56.32 30.0373 56.6187 29.7813 56.8747 29.44L58.0267 28.032C58.1973 27.8613 58.368 27.7333 58.5387 27.648C58.7947 27.5627 58.9653 27.4773 59.0507 27.392C59.392 27.0507 59.6907 26.6667 59.9467 26.24C60.2027 25.8133 60.416 25.4293 60.5867 25.088C60.7573 25.088 61.056 24.832 61.4827 24.32C61.9093 23.808 62.1653 23.4667 62.2507 23.296C62.6773 23.1253 62.976 22.8693 63.1467 22.528C63.4027 22.1013 63.616 21.6747 63.7867 21.248C64.0427 21.0773 64.2987 20.9067 64.5547 20.736C64.896 20.48 65.152 20.224 65.3227 19.968C65.4933 19.712 65.6213 19.4133 65.7067 19.072C65.8773 18.7307 66.1333 18.5173 66.4747 18.432C66.7307 17.7493 67.2853 16.9813 68.1387 16.128C69.0773 15.1893 69.5893 14.5493 69.6747 14.208C70.1013 14.1227 70.4853 13.8667 70.8267 13.44C71.168 12.928 71.5093 12.5867 71.8507 12.416C72.192 11.4773 72.832 10.6667 73.7707 9.984C74.7093 9.216 75.2213 8.40534 75.3067 7.552C75.392 7.38133 75.52 7.25334 75.6907 7.168C75.8613 7.08267 75.9893 6.99733 76.0747 6.912C76.3307 6.74134 76.5013 6.528 76.5867 6.272C76.7573 5.93067 76.9707 5.632 77.2267 5.376C77.312 5.20534 77.3973 5.07734 77.4827 4.992C77.6533 4.90667 77.7813 4.82134 77.8667 4.736C77.7813 4.736 77.4827 4.65067 76.9707 4.48C76.8 4.48 76.4587 4.48 75.9467 4.48C75.4347 4.39467 74.88 4.352 74.2827 4.352C72.32 4.352 70.9973 4.43733 70.3147 4.608C68.6933 4.69334 67.2853 4.82134 66.0907 4.992C64.9813 5.16267 63.6587 5.46134 62.1227 5.888C62.1227 5.888 62.08 5.84534 61.9947 5.76C61.9093 5.67467 61.824 5.632 61.7387 5.632L61.6107 5.504C61.3547 5.41867 61.312 5.46134 61.4827 5.632C61.6533 5.80267 61.6107 5.93067 61.3547 6.016C60.8427 6.10133 60.2453 6.22933 59.5627 6.4C58.9653 6.57067 58.4107 6.656 57.8987 6.656C57.6427 6.74134 57.3867 6.784 57.1307 6.784C56.8747 6.69867 56.6187 6.656 56.3627 6.656C55.5093 6.74134 54.656 7.04 53.8027 7.552C53.0347 7.97867 52.224 8.27733 51.3707 8.448L49.8347 8.832C49.2373 9.00267 48.768 9.17333 48.4267 9.344C48.1707 9.42934 47.7013 9.55734 47.0187 9.728L45.8667 10.112C45.6107 10.1973 45.312 10.2827 44.9707 10.368C44.7147 10.4533 44.416 10.5387 44.0747 10.624C43.392 10.88 42.6667 11.1787 41.8987 11.52C41.216 11.8613 40.5333 12.1173 39.8507 12.288L37.5467 12.928C37.2907 13.0133 36.9067 13.056 36.3947 13.056C35.712 13.056 35.2427 12.9707 34.9867 12.8C34.6453 12.6293 34.2187 12.16 33.7067 11.392C33.28 10.5387 33.1093 9.94134 33.1947 9.6C33.7067 8.832 34.7307 8.23467 36.2667 7.808C37.888 7.296 38.912 6.99733 39.3387 6.912C39.424 6.82667 39.808 6.69867 40.4907 6.528C41.2587 6.272 41.984 6.05867 42.6667 5.888C43.3493 5.71734 43.6907 5.71734 43.6907 5.888C43.776 5.97334 43.3067 6.31467 42.2827 6.912C41.2587 7.424 40.704 7.72267 40.6187 7.808C40.6187 7.89333 40.5333 8.02133 40.3627 8.192C40.2773 8.36267 40.2773 8.40534 40.3627 8.32L43.3067 7.552C43.4773 7.46667 43.8187 7.424 44.3307 7.424H45.2267C45.824 7.424 46.208 7.33867 46.3787 7.168C46.5493 6.82667 46.72 6.656 46.8907 6.656C47.3173 6.48534 47.9573 6.35734 48.8107 6.272C49.7493 6.10134 50.3467 5.93067 50.6027 5.76C51.0293 5.67467 51.4987 5.632 52.0107 5.632C52.5227 5.54667 52.992 5.41867 53.4187 5.248C53.6747 5.16267 54.528 4.992 55.9787 4.736C57.5147 4.48 59.0507 4.224 60.5867 3.968C62.1227 3.712 62.976 3.584 63.1467 3.584H63.2747C63.7013 3.584 64.128 3.54134 64.5547 3.456C64.9813 3.28533 65.2373 3.456 65.3227 3.968C65.408 3.968 65.4507 4.01067 65.4507 4.096C65.4507 4.096 65.4933 4.096 65.5787 4.096C66.0907 4.096 66.56 3.88267 66.9867 3.456C67.1573 3.37067 67.584 3.28534 68.2667 3.2C68.9493 3.11467 69.376 3.072 69.5467 3.072C70.2293 2.98667 70.784 2.944 71.2107 2.944C71.6373 2.944 72.0213 2.944 72.3627 2.944C73.0453 2.944 73.6427 2.98667 74.1547 3.072C74.752 3.072 75.4773 3.11467 76.3307 3.2C76.672 3.28534 77.0987 3.328 77.6107 3.328C78.208 3.328 78.72 3.37067 79.1467 3.456L79.6587 2.816C80.256 2.47467 80.768 2.304 81.1947 2.304C81.536 2.304 81.7067 2.47467 81.7067 2.816C81.7067 3.75467 81.2373 4.608 80.2987 5.376C80.2133 5.46134 80 5.58934 79.6587 5.76C79.3173 5.84534 79.104 5.97334 79.0187 6.144C78.592 7.25334 77.7387 8.27734 76.4587 9.216C75.264 10.1547 74.624 10.8373 74.5387 11.264C74.1973 11.4347 73.8133 11.6907 73.3867 12.032C72.96 12.3733 72.704 12.7147 72.6187 13.056C72.192 13.568 71.8507 14.1227 71.5947 14.72C71.3387 15.232 70.9547 15.744 70.4427 16.256C70.1867 16.512 69.76 17.024 69.1627 17.792C68.5653 18.56 67.968 19.328 67.3707 20.096C66.7733 20.7787 66.3467 21.12 66.0907 21.12C65.8347 21.376 65.7067 21.5467 65.7067 21.632C65.792 21.7173 65.6213 21.888 65.1947 22.144C64.768 22.5707 64.4267 23.04 64.1707 23.552C63.6587 23.6373 63.232 23.9787 62.8907 24.576C62.6347 25.088 62.3787 25.5573 62.1227 25.984C61.7813 26.4107 61.3973 26.7947 60.9707 27.136C60.6293 27.4773 60.288 27.8613 59.9467 28.288C59.6053 28.3733 59.2213 28.7573 58.7947 29.44C58.4533 30.0373 58.1973 30.464 58.0267 30.72C57.5147 31.3173 57.0453 31.7867 56.6187 32.128C56.2773 32.4693 56.1067 33.0667 56.1067 33.92C55.936 34.0907 55.68 34.3467 55.3387 34.688C54.9973 35.0293 54.784 35.328 54.6987 35.584C54.528 35.9253 54.272 36.224 53.9307 36.48C53.6747 36.736 53.4613 37.0347 53.2907 37.376L52.9067 37.632L52.7787 37.888C53.8027 37.888 54.8267 37.888 55.8507 37.888C56.8747 37.888 57.856 37.8453 58.7947 37.76L63.0187 37.504C63.1893 37.504 63.4453 37.632 63.7867 37.888C64.2133 38.0587 64.4693 38.1013 64.5547 38.016C64.8107 38.016 64.896 37.888 64.8107 37.632C64.7253 37.2907 64.8533 37.12 65.1947 37.12C65.9627 37.0347 66.9013 36.9493 68.0107 36.864C69.2053 36.6933 70.3573 36.48 71.4667 36.224L72.6187 32.64L73.7707 28.928C73.9413 28.3307 74.1973 27.9467 74.5387 27.776C74.88 27.6053 75.0933 27.3493 75.1787 27.008C75.264 26.8373 75.1787 26.7093 74.9227 26.624C74.6667 26.4533 74.6667 26.1973 74.9227 25.856C75.6907 23.4667 76.672 21.0773 77.8667 18.688C79.0613 16.2987 80.0853 14.1227 80.9387 12.16V12.032C81.1947 11.6907 81.408 11.4347 81.5787 11.264C81.8347 11.0933 82.0053 10.88 82.0907 10.624C82.0053 10.5387 82.0053 10.4533 82.0907 10.368C82.176 10.2827 82.1333 10.1973 81.9627 10.112C82.56 9.51467 82.9013 8.74667 82.9867 7.808L84.2667 5.12L86.1867 2.048C86.272 1.792 86.4853 1.49334 86.8267 1.152C87.5093 0.384001 88.1067 0 88.6187 0C89.3867 0 89.4293 0.469334 88.7467 1.408L88.4907 2.048L87.5947 3.2L87.0827 4.608C86.2293 6.144 85.4187 7.808 84.6507 9.6C83.8827 11.392 83.0293 13.2693 82.0907 15.232V15.744C82.0907 16.1707 81.9627 16.4693 81.7067 16.64C81.536 16.8107 81.1947 16.9813 80.6827 17.152C80.9387 17.664 80.9813 18.2187 80.8107 18.816L79.9147 21.376C79.5733 22.2293 79.104 23.2533 78.5067 24.448C77.9093 25.6427 77.568 26.5813 77.4827 27.264C76.6293 29.9947 75.9893 32.5973 75.5627 35.072C75.8187 34.9867 76.0747 34.9013 76.3307 34.816C76.5867 34.7307 76.8 34.6453 76.9707 34.56C77.3973 34.3893 77.696 34.304 77.8667 34.304C78.1227 34.304 78.464 34.2613 78.8907 34.176C79.4027 34.0053 79.9147 33.792 80.4267 33.536C80.6827 33.3653 81.024 33.28 81.4507 33.28C81.8773 33.28 82.0907 33.408 82.0907 33.664C82.0907 34.0053 81.7067 34.3893 80.9387 34.816L78.2507 36.352C77.568 36.5227 77.0133 36.608 76.5867 36.608C76.416 36.608 75.9893 36.6933 75.3067 36.864L74.7947 39.808L74.9227 41.728C74.8373 41.984 74.4533 42.112 73.7707 42.112C73.1733 42.112 73.088 42.496 73.5147 43.264C73.856 43.6907 74.0693 43.9893 74.1547 44.16C74.24 44.2453 74.1973 44.6293 74.0267 45.312C73.6853 46.336 73.3867 47.7013 73.1307 49.408C72.96 51.1147 72.832 52.5227 72.7467 53.632C72.7467 53.7173 72.6613 53.9307 72.4907 54.272C72.4053 54.6133 72.32 54.8693 72.2347 55.04C72.2347 55.1253 72.2773 55.168 72.3627 55.168C72.5333 55.168 72.6187 55.2533 72.6187 55.424C72.7893 57.216 72.7893 58.88 72.6187 60.416L72.3627 63.36C72.3627 63.4453 72.2773 63.616 72.1067 63.872C71.936 64.128 71.8933 64.3413 71.9787 64.512C71.7227 65.4507 71.2533 66.0907 70.5707 66.432C69.888 66.8587 69.2053 67.072 68.5227 67.072C67.2427 67.072 66.3893 66.8587 65.9627 66.432L65.3227 65.92V63.104C64.8107 62.6773 64.2987 62.2507 63.7867 61.824C63.2747 61.3973 62.7627 61.0133 62.2507 60.672C61.312 59.9893 60.3733 59.392 59.4347 58.88C58.5813 58.2827 57.6853 57.6427 56.7467 56.96C55.7227 56.192 54.6987 55.3813 53.6747 54.528C52.736 53.6747 51.712 52.864 50.6027 52.096C49.408 51.2427 48.1707 50.4747 46.8907 49.792C45.6107 49.024 44.3307 48.3413 43.0507 47.744C42.7093 48.0853 42.0693 48.7253 41.1307 49.664C40.192 50.5173 39.296 51.3707 38.4427 52.224C37.5893 52.992 37.0773 53.4187 36.9067 53.504C36.8213 53.6747 36.6933 53.8453 36.5227 54.016C36.4373 54.1867 36.3093 54.3573 36.1387 54.528C35.968 54.6133 35.712 54.7413 35.3707 54.912C35.1147 55.0827 34.9867 55.2533 34.9867 55.424C34.816 55.5947 34.56 55.7653 34.2187 55.936C33.9627 56.0213 33.792 56.2347 33.7067 56.576L33.8347 56.704C33.4933 56.7893 33.3227 56.8747 33.3227 56.96C33.408 57.0453 33.4507 57.216 33.4507 57.472C33.3653 57.5573 33.0667 57.728 32.5547 57.984C32.128 58.24 31.8293 58.4107 31.6587 58.496C30.8907 58.9227 30.336 59.264 29.9947 59.52C29.7387 59.776 29.3973 60.288 28.9707 61.056C28.7147 61.2267 28.16 61.568 27.3067 62.08C26.4533 62.592 26.0267 62.9333 26.0267 63.104C25.6853 63.1893 25.472 63.36 25.3867 63.616C25.3013 63.872 25.1733 64.0853 25.0027 64.256C24.9173 64.4267 24.7467 64.5547 24.4907 64.64C24.2347 64.7253 24.064 64.896 23.9787 65.152L23.7227 65.28H23.5947C23.3387 65.28 23.0827 65.408 22.8267 65.664C22.656 65.92 22.4853 66.1333 22.3147 66.304C21.376 66.3893 20.6507 66.6453 20.1387 67.072C19.712 67.584 19.1147 68.0107 18.3467 68.352C17.3227 68.7787 16.256 69.2053 15.1467 69.632C14.0373 70.0587 12.8853 70.3573 11.6907 70.528C11.3493 70.6987 11.0933 70.8267 10.9227 70.912C10.8373 71.0827 10.5813 71.0827 10.1547 70.912C10.3253 70.656 10.2827 70.528 10.0267 70.528C9.68533 70.784 9.344 70.912 9.00267 70.912ZM65.5787 61.44V61.056C65.5787 60.8 65.7067 60.544 65.9627 60.288C65.8773 60.1173 65.792 60.032 65.7067 60.032C65.7067 59.9467 65.7067 59.8613 65.7067 59.776L68.3947 47.104C68.736 45.568 69.12 44.032 69.5467 42.496C70.0587 40.8747 70.5707 39.2533 71.0827 37.632C70.912 37.7173 70.7413 37.76 70.5707 37.76C70.144 37.8453 69.8027 37.888 69.5467 37.888C69.2907 37.888 68.864 37.9733 68.2667 38.144C67.4133 38.3147 66.432 38.5707 65.3227 38.912C64.2987 39.2533 63.1893 39.4667 61.9947 39.552C61.1413 39.6373 60.4587 39.6373 59.9467 39.552C59.52 39.4667 58.88 39.4667 58.0267 39.552C57.6 39.6373 56.9173 39.7653 55.9787 39.936C55.04 40.0213 54.3147 40.064 53.8027 40.064L49.8347 40.576C49.8347 40.576 49.792 40.6187 49.7067 40.704C49.7067 40.7893 49.7067 40.8747 49.7067 40.96C49.536 41.1307 49.1947 41.4293 48.6827 41.856C48.256 42.1973 48 42.5387 47.9147 42.88L47.5307 43.008C47.4453 43.0933 47.2747 43.3067 47.0187 43.648C46.848 43.904 46.72 44.1173 46.6347 44.288C46.2933 44.3733 45.9947 44.5867 45.7387 44.928C45.4827 45.2693 45.2693 45.6107 45.0987 45.952C44.7573 45.952 44.5013 46.0373 44.3307 46.208C46.3787 47.3173 48.2133 48.4267 49.8347 49.536C50.176 49.792 50.432 50.048 50.6027 50.304C50.7733 50.56 51.0293 50.816 51.3707 51.072C52.1387 51.584 52.864 52.0107 53.5467 52.352C54.3147 52.608 54.9973 52.992 55.5947 53.504L63.4027 59.392C63.6587 59.5627 64 59.8613 64.4267 60.288C64.8533 60.6293 65.2373 61.0133 65.5787 61.44ZM41.8987 44.928C42.5813 44.2453 43.264 43.5627 43.9467 42.88C44.6293 42.1973 45.312 41.5147 45.9947 40.832L35.6267 41.472C34.432 41.5573 33.5787 41.6 33.0667 41.6C32.64 41.6 32 41.6853 31.1467 41.856C32.256 42.112 33.3227 42.4107 34.3467 42.752C35.3707 43.008 36.3947 43.3067 37.4187 43.648C37.8453 43.8187 38.2293 43.9893 38.5707 44.16C38.912 44.3307 39.2533 44.5013 39.5947 44.672C39.7653 44.7573 39.936 44.7147 40.1067 44.544C40.2773 44.288 40.4053 44.2027 40.4907 44.288L41.8987 44.928Z" />
</svg>
